<?xml version="1.0" encoding="UTF-8"?>
<svg id="Capa_4" data-name="Capa 4" xmlns="http://www.w3.org/2000/svg" xmlns:xlink="http://www.w3.org/1999/xlink" viewBox="0 0 1164.86 943.07">
  <defs>
    <style>
      .cls-1 {
        fill: url(#Degradado_sin_nombre_83);
      }

      .cls-2 {
        fill: none;
        stroke: #fff;
        stroke-linecap: round;
        stroke-linejoin: round;
        stroke-width: 3px;
      }

      .cls-3 {
        fill: url(#Degradado_sin_nombre_35);
      }

      .cls-4 {
        fill: url(#Degradado_sin_nombre_17);
      }

      .cls-5 {
        fill: #c8a448;
      }
    </style>
    <linearGradient id="Degradado_sin_nombre_35" data-name="Degradado sin nombre 35" x1="405.93" y1="672.98" x2="405.93" y2="220.89" gradientUnits="userSpaceOnUse">
      <stop offset="0" stop-color="#c8a448"/>
      <stop offset=".08" stop-color="#cdab49"/>
      <stop offset=".38" stop-color="#ddbf4d"/>
      <stop offset=".68" stop-color="#e7cb50"/>
      <stop offset=".96" stop-color="#ebd051"/>
    </linearGradient>
    <linearGradient id="Degradado_sin_nombre_17" data-name="Degradado sin nombre 17" x1="859.52" y1="604.6" x2="859.52" y2="291.58" gradientTransform="translate(41.72 29) rotate(-.52) scale(.93 1) skewX(.97)" gradientUnits="userSpaceOnUse">
      <stop offset="0" stop-color="#c8a448"/>
      <stop offset="1" stop-color="#ebd051"/>
    </linearGradient>
    <linearGradient id="Degradado_sin_nombre_83" data-name="Degradado sin nombre 83" x1="804.13" y1="588.01" x2="804.13" y2="139.45" gradientUnits="userSpaceOnUse">
      <stop offset="0" stop-color="#c8a448"/>
      <stop offset=".3" stop-color="#ceac49"/>
      <stop offset=".77" stop-color="#e0c24e"/>
      <stop offset="1" stop-color="#ebd051"/>
    </linearGradient>
  </defs>
  <path class="cls-3" d="M283.73,564.15c3.76-.32,7.99-.66,12.66-1.03h0c11.94-2,29.96-4.5,52.47-5.55,18.41-.86,17.25-1.59,80.14-6,46.5-3.26,88.04-.89,115.93-2.14,5.05-.23,10.74-.51,10.74-.51,9.58-.47,17.81-.88,24.83-1.37,6.95-.48,16.63-1.3,28.45-2.81-.34-1.09-.68-2.17-1.03-3.26l-6.81-19.56c-61.71,11.86-209.04-1.84-319.43,24.64-.2.42-.4.84-.6,1.26-.88-.14-2.02-.21-3.33-.03-1.01.14-1.91.4-2.68.7,24.34-11.95,60.94-26.17,106.65-29.49,27.32-1.98,44.61.89,70.98,2.83,34.38,2.54,84.28,3.5,146.98-4.89-1.85-3.82-3.7-7.64-5.56-11.45-16.68,3.95-42.94,8.96-75.39,9.75-50.74,1.23-75.43-8.88-114.78-10.96-28.78-1.52-71.31.94-124.49,21.84,24.69-18.14,63.52-40.32,111.93-39.97,27.35.2,41.28,7.46,74.92,12.86,29.08,4.66,72.34,7.84,127.55-2.26-1.38-3.31-2.77-6.63-4.15-9.94-11.66,2.74-31.56,6.79-56.47,8.41-89.01,5.78-128.87-26.8-195.59-10.47-15.76,3.86-40,12.15-68.03,32.69-6.27-40.46-11.85-82.97-16.45-127.41-7.75-74.86-11.69-145.38-13.01-210.77-5.22-1.13-10.49-2.31-15.8-3.53-.71-.16-1.4-.33-2.11-.49,2.29,6.88,5.42,17.45,7.77,30.7,2.42,13.65.81,12.09,3.83,31.9,0,0,3.72,24.43,3.99,35.04.08,3,.11,6.11.11,6.11.03,3.12.02,5.4.02,5.59-.1,22.81,8.87,98.89,8.87,98.89.98,8.31,3.09,33.42,7.31,83.65,2.81,33.42,3.97,50.43,3.94,50.16-13.22-114.31-26.43-228.63-39.65-342.94-3.75-.89-7.46-1.79-11.15-2.7.58.84,1.23,1.81,1.89,2.92,1.75,11.48,4.43,29.66,7.27,52.05,3.86,30.44,6.4,55.75,7.93,72.52.21,2.31.39,4.33.56,6.16.56,6.37.95,11.05.99,11.44,1.52,18.13,8.05,63.86,8.05,63.86,1.42,9.91,3.6,37.22,7.96,91.85,3.47,43.51,3.35,44.89,3.2,44.91-1.18.13-11.06-81.56-17.26-135.47-5.72-49.68-13.62-121.73-21.9-210.56-1.91-.48-3.83-.96-5.76-1.45-1.91-.49-3.82-.97-5.71-1.47,11.89,127.68,23.79,255.37,35.68,383.05l18.79,20.46-.46.83,2.06.93,1.62,1.75.46-.83,24.17,10.74,340.5-19-6.84-18.02-326.77,15.87Z"/>
  <path class="cls-5" d="M619.43,565.56c-117.53,1.15-235.06,2.3-352.59,3.46-6.4-7.69-12.81-15.43-19.23-23.22-5.76-6.99-11.48-13.97-17.17-20.94-11.53-122.09-23.06-244.19-34.58-366.28-8.11-.69-16.22-1.37-24.33-2.06,14.44,125.07,43.43,372.04,43.33,375.2s-1.45.08,16.46,23.16,29.23,29.7,36.22,29.84c6.99.14,158.6.06,352.28,3.33-.13-7.49-.25-14.99-.38-22.48Z"/>
  <g>
    <path class="cls-4" d="M967.24,589.98h-61.48c-20.96-32.02-41.93-64.04-62.89-96.06,5.36,11.7,10.71,23.41,16.07,35.11-12.93-1.01-37.38-4.99-61.38-23-7.29-5.47-21.17-16.13-31.81-35.9-13.51-25.11-13.43-49.38-12.82-59.68-.29-2.71-2.26-18.86-15.7-29.43-9.59-7.55-19.63-8.01-23.17-7.99,3.86-2.77,7.71-5.54,11.57-8.32,1.84-3.35,5.81-9.49,13.03-13.9,12.82-7.83,26.01-4.14,29.68-2.94,15.81,5.17,22.95,19.16,24.23,21.76,1.32,4.12,4.67,12.76,12.61,20.43,7.4,7.15,15.11,9.92,19.01,11.01,2.98-5.58,7.82-13.97,14.84-23.25,14.67-19.4,28.32-28.82,42.68-40.81,0,0,22.02-18.38,46.16-46.18,13.6-15.66,31.79-40.31,47.81-77.08,3.95,6.8,11.25,21.38,12.31,41.33.9,16.9-3.08,30.08-5.78,37.17-4,7.01-9.73,15.53-17.81,24.03-11.15,11.73-22.52,18.95-30.87,23.3,8.12-2.11,20.77-6.6,33.65-16.71,9.36-7.35,15.83-15.31,20.05-21.46.92,6.94,1.56,17.73-.95,30.4-2.72,13.72-8,23.81-11.71,29.77-6.94,4.86-14.81,9.82-23.63,14.57-13.26,7.14-25.77,12.22-36.81,15.9,10.38-.84,22.37-2.67,35.4-6.3,7.17-2,13.75-4.29,19.71-6.69-3.41,8.98-14.71,35.42-42.58,53.07-24.98,15.81-49.22,15.67-58.65,15.1,33.09,47.58,66.17,95.16,99.26,142.74Z"/>
    <circle class="cls-2" cx="761.8" cy="363.73" r="1.72"/>
  </g>
  <path class="cls-1" d="M656.07,588.01h53.17c.54-130.71,1.08-261.42,1.63-392.14,49.34,1.19,98.69,2.38,148.03,3.56,6.68,2.47,22.18,9.33,35.02,26.73,10.82,14.66,14.52,29.74,15.92,37.42,14.3-13.97,28.6-27.95,42.89-41.93-5.48-13.59-19.44-44.21-45.43-64.31-24.34-18.82-46.52-18.6-56.65-17.5h-195.1c.17,149.38.35,298.77.52,448.15Z"/>
</svg>